<svg xmlns="http://www.w3.org/2000/svg" version="1.1" xmlns:xlink="http://www.w3.org/1999/xlink" xmlns:svgjs="http://svgjs.dev/svgjs" width="1440" height="1000" preserveAspectRatio="none" viewBox="0 0 1440 1000"><g mask="url(&quot;#SvgjsMask1924&quot;)" fill="none"><path d="M453 264L452 899" stroke-width="8" stroke="url(&quot;#SvgjsLinearGradient1925&quot;)" stroke-linecap="round" class="Up"></path><path d="M339 499L338 880" stroke-width="6" stroke="url(&quot;#SvgjsLinearGradient1925&quot;)" stroke-linecap="round" class="Up"></path><path d="M357 343L356 933" stroke-width="10" stroke="url(&quot;#SvgjsLinearGradient1926&quot;)" stroke-linecap="round" class="Down"></path><path d="M917 604L916 -27" stroke-width="6" stroke="url(&quot;#SvgjsLinearGradient1926&quot;)" stroke-linecap="round" class="Down"></path><path d="M98 229L97 675" stroke-width="10" stroke="url(&quot;#SvgjsLinearGradient1925&quot;)" stroke-linecap="round" class="Up"></path><path d="M659 920L658 1296" stroke-width="10" stroke="url(&quot;#SvgjsLinearGradient1926&quot;)" stroke-linecap="round" class="Down"></path><path d="M1220 466L1219 1115" stroke-width="10" stroke="url(&quot;#SvgjsLinearGradient1925&quot;)" stroke-linecap="round" class="Up"></path><path d="M933 609L932 1030" stroke-width="8" stroke="url(&quot;#SvgjsLinearGradient1925&quot;)" stroke-linecap="round" class="Up"></path><path d="M134 778L133 411" stroke-width="6" stroke="url(&quot;#SvgjsLinearGradient1926&quot;)" stroke-linecap="round" class="Down"></path><path d="M39 662L38 1009" stroke-width="10" stroke="url(&quot;#SvgjsLinearGradient1926&quot;)" stroke-linecap="round" class="Down"></path><path d="M814 738L813 1292" stroke-width="8" stroke="url(&quot;#SvgjsLinearGradient1926&quot;)" stroke-linecap="round" class="Down"></path><path d="M1329 192L1328 452" stroke-width="10" stroke="url(&quot;#SvgjsLinearGradient1925&quot;)" stroke-linecap="round" class="Up"></path><path d="M1288 191L1287 -187" stroke-width="10" stroke="url(&quot;#SvgjsLinearGradient1925&quot;)" stroke-linecap="round" class="Up"></path><path d="M773 615L772 1099" stroke-width="6" stroke="url(&quot;#SvgjsLinearGradient1925&quot;)" stroke-linecap="round" class="Up"></path><path d="M668 185L667 -213" stroke-width="10" stroke="url(&quot;#SvgjsLinearGradient1926&quot;)" stroke-linecap="round" class="Down"></path><path d="M924 258L923 862" stroke-width="10" stroke="url(&quot;#SvgjsLinearGradient1925&quot;)" stroke-linecap="round" class="Up"></path><path d="M613 11L612 579" stroke-width="6" stroke="url(&quot;#SvgjsLinearGradient1926&quot;)" stroke-linecap="round" class="Down"></path><path d="M574 43L573 -508" stroke-width="10" stroke="url(&quot;#SvgjsLinearGradient1925&quot;)" stroke-linecap="round" class="Up"></path><path d="M1361 782L1360 477" stroke-width="8" stroke="url(&quot;#SvgjsLinearGradient1926&quot;)" stroke-linecap="round" class="Down"></path><path d="M1365 49L1364 358" stroke-width="10" stroke="url(&quot;#SvgjsLinearGradient1926&quot;)" stroke-linecap="round" class="Down"></path><path d="M1377 224L1376 -50" stroke-width="10" stroke="url(&quot;#SvgjsLinearGradient1925&quot;)" stroke-linecap="round" class="Up"></path><path d="M809 619L808 -87" stroke-width="8" stroke="url(&quot;#SvgjsLinearGradient1925&quot;)" stroke-linecap="round" class="Up"></path><path d="M1270 999L1269 1494" stroke-width="10" stroke="url(&quot;#SvgjsLinearGradient1926&quot;)" stroke-linecap="round" class="Down"></path><path d="M148 683L147 -19" stroke-width="6" stroke="url(&quot;#SvgjsLinearGradient1926&quot;)" stroke-linecap="round" class="Down"></path><path d="M1303 891L1302 1629" stroke-width="8" stroke="url(&quot;#SvgjsLinearGradient1925&quot;)" stroke-linecap="round" class="Up"></path><path d="M487 376L486 726" stroke-width="6" stroke="url(&quot;#SvgjsLinearGradient1926&quot;)" stroke-linecap="round" class="Down"></path><path d="M198 273L197 835" stroke-width="10" stroke="url(&quot;#SvgjsLinearGradient1926&quot;)" stroke-linecap="round" class="Down"></path><path d="M199 571L198 -99" stroke-width="8" stroke="url(&quot;#SvgjsLinearGradient1925&quot;)" stroke-linecap="round" class="Up"></path><path d="M1322 393L1321 89" stroke-width="6" stroke="url(&quot;#SvgjsLinearGradient1926&quot;)" stroke-linecap="round" class="Down"></path><path d="M1385 612L1384 198" stroke-width="6" stroke="url(&quot;#SvgjsLinearGradient1925&quot;)" stroke-linecap="round" class="Up"></path><path d="M737 460L736 -236" stroke-width="10" stroke="url(&quot;#SvgjsLinearGradient1926&quot;)" stroke-linecap="round" class="Down"></path><path d="M245 779L244 1221" stroke-width="8" stroke="url(&quot;#SvgjsLinearGradient1926&quot;)" stroke-linecap="round" class="Down"></path><path d="M1380 892L1379 153" stroke-width="10" stroke="url(&quot;#SvgjsLinearGradient1926&quot;)" stroke-linecap="round" class="Down"></path><path d="M685 237L684 -239" stroke-width="6" stroke="url(&quot;#SvgjsLinearGradient1925&quot;)" stroke-linecap="round" class="Up"></path><path d="M842 55L841 784" stroke-width="6" stroke="url(&quot;#SvgjsLinearGradient1926&quot;)" stroke-linecap="round" class="Down"></path><path d="M1346 268L1345 -319" stroke-width="10" stroke="url(&quot;#SvgjsLinearGradient1925&quot;)" stroke-linecap="round" class="Up"></path></g><defs><mask id="SvgjsMask1924"><rect width="1440" height="1000" fill="#ffffff"></rect></mask><linearGradient x1="0%" y1="100%" x2="0%" y2="0%" id="SvgjsLinearGradient1925"><stop stop-color="rgba(49, 197, 181, 0)" offset="0"></stop><stop stop-color="rgba(49, 197, 181, 1)" offset="1"></stop></linearGradient><linearGradient x1="0%" y1="0%" x2="0%" y2="100%" id="SvgjsLinearGradient1926"><stop stop-color="rgba(49, 197, 181, 0)" offset="0"></stop><stop stop-color="rgba(49, 197, 181, 1)" offset="1"></stop></linearGradient></defs></svg>